<mxfile host="app.diagrams.net" modified="2023-07-24T15:47:15.135Z" agent="Mozilla/5.0 (X11; Linux x86_64; rv:109.0) Gecko/20100101 Firefox/115.0" etag="RgxhP9w7aCyUoLp8uea3" version="21.6.5" type="device">
  <diagram name="Page-1" id="rODB4jgNcYu1eCA8YxtC">
    <mxGraphModel dx="1631" dy="872" grid="1" gridSize="10" guides="1" tooltips="1" connect="1" arrows="1" fold="1" page="1" pageScale="1" pageWidth="1600" pageHeight="900" math="0" shadow="0">
      <root>
        <mxCell id="0" />
        <mxCell id="1" parent="0" />
        <mxCell id="exvtsouXaHTVrLyTlHYx-1" value="" style="strokeWidth=1;shadow=0;dashed=0;align=center;shape=mxgraph.mockup.containers.browserWindow;rSize=0;strokeColor=#666666;strokeColor2=#008cff;strokeColor3=#c4c4c4;mainText=,;recursiveResize=0;fontSize=24;html=1;aspect=fixed;" vertex="1" parent="1">
          <mxGeometry y="120" width="1386.67" height="780" as="geometry" />
        </mxCell>
        <mxCell id="exvtsouXaHTVrLyTlHYx-2" value="Page 1" style="strokeWidth=1;shadow=0;dashed=0;align=center;html=1;shape=mxgraph.mockup.containers.anchor;fontSize=17;fontColor=#666666;align=left;whiteSpace=wrap;" vertex="1" parent="exvtsouXaHTVrLyTlHYx-1">
          <mxGeometry x="60" y="12" width="110" height="26" as="geometry" />
        </mxCell>
        <mxCell id="exvtsouXaHTVrLyTlHYx-3" value="https://www.draw.io" style="strokeWidth=1;shadow=0;dashed=0;align=center;html=1;shape=mxgraph.mockup.containers.anchor;rSize=0;fontSize=17;fontColor=#666666;align=left;" vertex="1" parent="exvtsouXaHTVrLyTlHYx-1">
          <mxGeometry x="130" y="60" width="250" height="26" as="geometry" />
        </mxCell>
        <mxCell id="exvtsouXaHTVrLyTlHYx-4" value="DATASET EXAMPLES" style="text;html=1;strokeColor=none;fillColor=none;align=center;verticalAlign=middle;whiteSpace=wrap;rounded=0;fontSize=45;fontStyle=1;" vertex="1" parent="exvtsouXaHTVrLyTlHYx-1">
          <mxGeometry x="448.34000000000003" y="170" width="490" height="70" as="geometry" />
        </mxCell>
        <mxCell id="exvtsouXaHTVrLyTlHYx-5" value="The dataset must include a column with the &lt;b&gt;id&lt;/b&gt; and another with the &lt;b&gt;text&lt;/b&gt;" style="text;spacingTop=-5;whiteSpace=wrap;html=1;align=center;fontSize=19;fontFamily=Helvetica;fillColor=none;strokeColor=none;" vertex="1" parent="exvtsouXaHTVrLyTlHYx-1">
          <mxGeometry x="296.88" y="250" width="792.92" height="30" as="geometry" />
        </mxCell>
        <mxCell id="exvtsouXaHTVrLyTlHYx-9" value="" style="rounded=1;whiteSpace=wrap;html=1;fillColor=#f5f5f5;fontColor=#333333;strokeColor=#666666;fontSize=19;arcSize=3;verticalAlign=top;" vertex="1" parent="exvtsouXaHTVrLyTlHYx-1">
          <mxGeometry x="338.34" y="330" width="710" height="310" as="geometry" />
        </mxCell>
        <mxCell id="exvtsouXaHTVrLyTlHYx-41" value="NDJSON" style="strokeWidth=1;shadow=0;dashed=0;align=center;html=1;shape=mxgraph.mockup.buttons.button;strokeColor=#666666;fontColor=#ffffff;mainText=;buttonStyle=round;fontSize=15;fontStyle=1;fillColor=#008cff;whiteSpace=wrap;" vertex="1" parent="exvtsouXaHTVrLyTlHYx-1">
          <mxGeometry x="546.67" y="670" width="123.34" height="40" as="geometry" />
        </mxCell>
        <mxCell id="exvtsouXaHTVrLyTlHYx-42" value="CSV" style="strokeWidth=1;shadow=0;dashed=0;align=center;html=1;shape=mxgraph.mockup.buttons.button;strokeColor=#666666;fontColor=#ffffff;mainText=;buttonStyle=round;fontSize=15;fontStyle=1;fillColor=#008cff;whiteSpace=wrap;" vertex="1" parent="exvtsouXaHTVrLyTlHYx-1">
          <mxGeometry x="716.67" y="670" width="123.34" height="40" as="geometry" />
        </mxCell>
        <mxCell id="exvtsouXaHTVrLyTlHYx-44" value="&lt;div&gt;1&lt;span style=&quot;&quot;&gt;&lt;span style=&quot;white-space: pre;&quot;&gt;&amp;nbsp;&amp;nbsp;&amp;nbsp;&amp;nbsp;&lt;/span&gt;&lt;/span&gt;{&quot;id&quot;: 1203, &quot;text&quot;: &quot;Lorem ipsum dolor sit amet, consectetur adipiscing elit, se...&quot;}&lt;/div&gt;" style="text;html=1;strokeColor=none;fillColor=none;align=left;verticalAlign=top;whiteSpace=wrap;rounded=0;fontFamily=Courier New;" vertex="1" parent="exvtsouXaHTVrLyTlHYx-1">
          <mxGeometry x="360" y="350" width="680" height="30" as="geometry" />
        </mxCell>
        <mxCell id="exvtsouXaHTVrLyTlHYx-45" value="&lt;div&gt;2&lt;span style=&quot;&quot;&gt;&lt;span style=&quot;white-space: pre;&quot;&gt;&amp;nbsp;&amp;nbsp;&amp;nbsp;&amp;nbsp;&lt;/span&gt;&lt;/span&gt;{&quot;id&quot;: 1203, &quot;text&quot;: &quot;Lorem ipsum dolor sit amet, consectetur adipiscing elit, se...&quot;}&lt;/div&gt;" style="text;html=1;strokeColor=none;fillColor=none;align=left;verticalAlign=top;whiteSpace=wrap;rounded=0;fontFamily=Courier New;" vertex="1" parent="exvtsouXaHTVrLyTlHYx-1">
          <mxGeometry x="360" y="380" width="680" height="30" as="geometry" />
        </mxCell>
        <mxCell id="exvtsouXaHTVrLyTlHYx-46" value="&lt;div&gt;3&lt;span style=&quot;&quot;&gt;&lt;span style=&quot;white-space: pre;&quot;&gt;&amp;nbsp;&amp;nbsp;&amp;nbsp;&amp;nbsp;&lt;/span&gt;&lt;/span&gt;{&quot;id&quot;: 1203, &quot;text&quot;: &quot;Lorem ipsum dolor sit amet, consectetur adipiscing elit, se...&quot;}&lt;/div&gt;" style="text;html=1;strokeColor=none;fillColor=none;align=left;verticalAlign=top;whiteSpace=wrap;rounded=0;fontFamily=Courier New;" vertex="1" parent="exvtsouXaHTVrLyTlHYx-1">
          <mxGeometry x="360" y="410" width="680" height="30" as="geometry" />
        </mxCell>
        <mxCell id="exvtsouXaHTVrLyTlHYx-47" value="&lt;div&gt;4&lt;span style=&quot;&quot;&gt;&lt;span style=&quot;white-space: pre;&quot;&gt;&amp;nbsp;&amp;nbsp;&amp;nbsp;&amp;nbsp;&lt;/span&gt;&lt;/span&gt;{&quot;id&quot;: 1203, &quot;text&quot;: &quot;Lorem ipsum dolor sit amet, consectetur adipiscing elit, se...&quot;}&lt;/div&gt;" style="text;html=1;strokeColor=none;fillColor=none;align=left;verticalAlign=top;whiteSpace=wrap;rounded=0;fontFamily=Courier New;" vertex="1" parent="exvtsouXaHTVrLyTlHYx-1">
          <mxGeometry x="360" y="440" width="680" height="30" as="geometry" />
        </mxCell>
        <mxCell id="exvtsouXaHTVrLyTlHYx-48" value="&lt;div&gt;5&lt;span style=&quot;&quot;&gt;&lt;span style=&quot;white-space: pre;&quot;&gt;&amp;nbsp;&amp;nbsp;&amp;nbsp;&amp;nbsp;&lt;/span&gt;&lt;/span&gt;{&quot;id&quot;: 1203, &quot;text&quot;: &quot;Lorem ipsum dolor sit amet, consectetur adipiscing elit, se...&quot;}&lt;/div&gt;" style="text;html=1;strokeColor=none;fillColor=none;align=left;verticalAlign=top;whiteSpace=wrap;rounded=0;fontFamily=Courier New;" vertex="1" parent="exvtsouXaHTVrLyTlHYx-1">
          <mxGeometry x="360" y="470" width="680" height="30" as="geometry" />
        </mxCell>
        <mxCell id="exvtsouXaHTVrLyTlHYx-49" value="&lt;div&gt;6&lt;span style=&quot;&quot;&gt;&lt;span style=&quot;white-space: pre;&quot;&gt;&amp;nbsp;&amp;nbsp;&amp;nbsp;&amp;nbsp;&lt;/span&gt;&lt;/span&gt;{&quot;id&quot;: 1203, &quot;text&quot;: &quot;Lorem ipsum dolor sit amet, consectetur adipiscing elit, se...&quot;}&lt;/div&gt;" style="text;html=1;strokeColor=none;fillColor=none;align=left;verticalAlign=top;whiteSpace=wrap;rounded=0;fontFamily=Courier New;" vertex="1" parent="exvtsouXaHTVrLyTlHYx-1">
          <mxGeometry x="360" y="500" width="680" height="30" as="geometry" />
        </mxCell>
        <mxCell id="exvtsouXaHTVrLyTlHYx-50" value="&lt;div&gt;7&lt;span style=&quot;&quot;&gt;&lt;span style=&quot;white-space: pre;&quot;&gt;&amp;nbsp;&amp;nbsp;&amp;nbsp;&amp;nbsp;&lt;/span&gt;&lt;/span&gt;{&quot;id&quot;: 1203, &quot;text&quot;: &quot;Lorem ipsum dolor sit amet, consectetur adipiscing elit, se...&quot;}&lt;/div&gt;" style="text;html=1;strokeColor=none;fillColor=none;align=left;verticalAlign=top;whiteSpace=wrap;rounded=0;fontFamily=Courier New;" vertex="1" parent="exvtsouXaHTVrLyTlHYx-1">
          <mxGeometry x="360" y="530" width="680" height="30" as="geometry" />
        </mxCell>
        <mxCell id="exvtsouXaHTVrLyTlHYx-51" value="&lt;div&gt;8&lt;span style=&quot;&quot;&gt;&lt;span style=&quot;white-space: pre;&quot;&gt;&amp;nbsp;&amp;nbsp;&amp;nbsp;&amp;nbsp;&lt;/span&gt;&lt;/span&gt;{&quot;id&quot;: 1203, &quot;text&quot;: &quot;Lorem ipsum dolor sit amet, consectetur adipiscing elit, se...&quot;}&lt;/div&gt;" style="text;html=1;strokeColor=none;fillColor=none;align=left;verticalAlign=top;whiteSpace=wrap;rounded=0;fontFamily=Courier New;" vertex="1" parent="exvtsouXaHTVrLyTlHYx-1">
          <mxGeometry x="360" y="560" width="680" height="30" as="geometry" />
        </mxCell>
        <mxCell id="exvtsouXaHTVrLyTlHYx-52" value="&lt;div&gt;9&lt;span style=&quot;&quot;&gt;&lt;span style=&quot;white-space: pre;&quot;&gt;&amp;nbsp;&amp;nbsp;&amp;nbsp;&amp;nbsp;&lt;/span&gt;&lt;/span&gt;{&quot;id&quot;: 1203, &quot;text&quot;: &quot;Lorem ipsum dolor sit amet, consectetur adipiscing elit, se...&quot;}&lt;/div&gt;" style="text;html=1;strokeColor=none;fillColor=none;align=left;verticalAlign=top;whiteSpace=wrap;rounded=0;fontFamily=Courier New;" vertex="1" parent="exvtsouXaHTVrLyTlHYx-1">
          <mxGeometry x="360" y="590" width="680" height="30" as="geometry" />
        </mxCell>
      </root>
    </mxGraphModel>
  </diagram>
</mxfile>
